<?xml version="1.0" encoding="UTF-8" standalone="no"?>
<svg width="118px" height="116px" viewBox="0 0 118 116" version="1.1" xmlns="http://www.w3.org/2000/svg" xmlns:xlink="http://www.w3.org/1999/xlink" xmlns:sketch="http://www.bohemiancoding.com/sketch/ns">
    <!-- Generator: Sketch Beta 3.4 (14672) - http://www.bohemiancoding.com/sketch -->
    <title>Fill 27</title>
    <desc>Created with Sketch Beta.</desc>
    <defs></defs>
    <g id="Design" stroke="none" stroke-width="1" fill="none" fill-rule="evenodd" sketch:type="MSPage">
        <g id="Курс/Создание-курса" sketch:type="MSArtboardGroup" transform="translate(-261.000000, -31.000000)" fill-opacity="0.5" fill="#5779CC">
            <g id="Rectangle-70-+-Fill-27" sketch:type="MSLayerGroup" transform="translate(260.000000, 30.000000)">
                <path d="M119,106 L114.965812,99 C114.010286,98.422678 103.152179,81.4898648 89.7521368,81 C81.93325,81.4898648 75.6181429,88.6452498 69.5811966,96 C64.76425,100.940506 59.8567143,106.501406 55.4615385,107 C51.2975,106.501406 48.0040357,103.70845 44.3675214,101 C40.78075,97.5847914 36.5475,93.9956353 30.2478632,94 C19.0434643,93.9956353 6.17725,110.788801 6.04273504,111 L1,117 L1,1 L119,1 L119,106 Z M27.2222222,81 C33.6706197,81 39.3247863,75.39375 39.3247863,69 C39.3247863,61.60625 33.6706197,56 27.2222222,56 C19.7652778,56 14.1111111,61.60625 14.1111111,69 C14.1111111,75.39375 19.7652778,81 27.2222222,81 Z" id="Fill-27" sketch:type="MSShapeGroup"></path>
            </g>
        </g>
    </g>
</svg>