<?xml version="1.0" encoding="UTF-8" standalone="no"?>
<svg width="602px" height="444px" viewBox="0 0 602 444" version="1.1" xmlns="http://www.w3.org/2000/svg" xmlns:xlink="http://www.w3.org/1999/xlink" xmlns:sketch="http://www.bohemiancoding.com/sketch/ns">
    <!-- Generator: Sketch Beta 3.4 (14672) - http://www.bohemiancoding.com/sketch -->
    <title>Иконки для кнопок</title>
    <desc>Created with Sketch Beta.</desc>
    <defs></defs>
    <g id="Design" stroke="none" stroke-width="1" fill="none" fill-rule="evenodd" sketch:type="MSPage">
        <g id="Иконки-для-кнопок" sketch:type="MSArtboardGroup" fill="#FFFFFF">
            <path d="M20.9,23.1 L19.5,24.5 L24,29 L34,19 L32.6,17.6 L24,26.2 L20.9,23.1 L20.9,23.1 Z M33,25 C33,29.4 29.4,33 25,33 C20.6,33 17,29.4 17,25 C17,20.6 20.6,17 25,17 C25.8,17 26.5,17.1 27.2,17.3 L28.8,15.7 C27.6,15.3 26.3,15 25,15 C19.5,15 15,19.5 15,25 C15,30.5 19.5,35 25,35 C30.5,35 35,30.5 35,25 L33,25 L33,25 Z" id="Shape" sketch:type="MSShapeGroup"></path>
            <path d="M90.6,29.6 L86.4,25.4 L85,26.8 L90.6,32.4 L102.6,20.4 L101.2,19 L90.6,29.6 Z" id="Shape" sketch:type="MSShapeGroup"></path>
            <path d="M61,20 L59,20 L59,24 L55,24 L55,26 L59,26 L59,30 L61,30 L61,26 L65,26 L65,24 L61,24 L61,20 L61,20 Z M60,15 C54.5,15 50,19.5 50,25 C50,30.5 54.5,35 60,35 C65.5,35 70,30.5 70,25 C70,19.5 65.5,15 60,15 L60,15 Z M60,33 C55.6,33 52,29.4 52,25 C52,20.6 55.6,17 60,17 C64.4,17 68,20.6 68,25 C68,29.4 64.4,33 60,33 L60,33 Z" id="Shape" sketch:type="MSShapeGroup"></path>
            <path d="M16.4,50 L15,51.4 L19.6,56 L15,60.6 L16.4,62 L22.4,56 L16.4,50 Z" id="Shape" sketch:type="MSShapeGroup" transform="translate(18.500000, 56.000000) scale(-1, 1) translate(-18.500000, -56.000000) "></path>
            <path d="M51.4,50 L50,51.4 L54.6,56 L50,60.6 L51.4,62 L57.4,56 L51.4,50 Z" id="Shape" sketch:type="MSShapeGroup"></path>
            <path d="M132,19.4 L130.6,18 L125,23.6 L119.4,18 L118,19.4 L123.6,25 L118,30.6 L119.4,32 L125,26.4 L130.6,32 L132,30.6 L126.4,25 L132,19.4 Z" id="Shape" sketch:type="MSShapeGroup"></path>
        </g>
    </g>
</svg>