<?xml version="1.0" encoding="UTF-8" standalone="no"?>
<svg width="602px" height="30px" viewBox="0 0 602 30" version="1.1" xmlns="http://www.w3.org/2000/svg" xmlns:xlink="http://www.w3.org/1999/xlink" xmlns:sketch="http://www.bohemiancoding.com/sketch/ns">
    <!-- Generator: Sketch Beta 3.4 (14672) - http://www.bohemiancoding.com/sketch -->
    <title>Чекбоксы</title>
    <desc>Created with Sketch Beta.</desc>
    <defs></defs>
    <g id="Design" stroke="none" stroke-width="1" fill="none" fill-rule="evenodd" sketch:type="MSPage">
        <g id="Чекбоксы" sketch:type="MSArtboardGroup" fill="#5879CC">
            <path d="M28,19.9975267 C28,20.5511774 27.544239,21 26.9975267,21 L17.0024733,21 C16.4488226,21 16,20.544239 16,19.9975267 L16,10.0024733 C16,9.44882258 16.455761,9 17.0024733,9 L26.9975267,9 C27.5511774,9 28,9.45576096 28,10.0024733 L28,19.9975267 Z M27,8 L17,8 C15.7,8 15,8.7 15,10 L15,20 C15,21.3 15.7,22 17,22 L27,22 C28.3,22 29,21.3 29,20 L29,10 C29,8.7 28.3,8 27,8 L27,8 L27,8 Z" id="Shape" sketch:type="MSShapeGroup"></path>
            <path d="M46,15.5432692 L47.25,14.3653846 L49.2142857,16.1442308 L54.75,11 L56,12.1778846 L49.2142857,18.5 L46,15.5432692 Z M56,8 L46,8 C44.7,8 44,8.7 44,10 L44,20 C44,21.3 44.7,22 46,22 L56,22 C57.3,22 58,21.3 58,20 L58,10 C58,8.7 57.3,8 56,8 L56,8 L56,8 Z" id="Shape" sketch:type="MSShapeGroup"></path>
            <path d="M75,15.5432692 L76.25,14.3653846 L78.2142857,16.1442308 L83.75,11 L85,12.1778846 L78.2142857,18.5 L75,15.5432692 Z M85,8 L75,8 C73.7,8 73,8.7 73,10 L73,20 C73,21.3 73.7,22 75,22 L85,22 C86.3,22 87,21.3 87,20 L87,10 C87,8.7 86.3,8 85,8 L85,8 L85,8 Z" id="Shape" opacity="0.501224347" sketch:type="MSShapeGroup"></path>
        </g>
    </g>
</svg>