<?xml version="1.0" encoding="UTF-8" standalone="no"?>
<svg width="190px" height="43px" viewBox="0 0 190 43" version="1.1" xmlns="http://www.w3.org/2000/svg" xmlns:xlink="http://www.w3.org/1999/xlink" xmlns:sketch="http://www.bohemiancoding.com/sketch/ns">
    <!-- Generator: Sketch 3.3.1 (12002) - http://www.bohemiancoding.com/sketch -->
    <title>Mask</title>
    <desc>Created with Sketch.</desc>
    <defs></defs>
    <g id="Page-1" stroke="none" stroke-width="1" fill="none" fill-rule="evenodd" sketch:type="MSPage">
        <path d="M3.7117999,9.42024015 C7.58055996,3.73430339 14.1041833,0 21.5,0 C33.3741221,0 43,9.62587788 43,21.5 C43,33.3741221 33.3741221,43 21.5,43 C18.9007264,43 16.4091848,42.5387448 14.1027621,41.6936214 L14.1027621,13.7282282 C14.1027621,11.46997 14.1740886,11.1876877 17.9543935,11.1876877 C25.3723503,11.1876877 29.4379613,15.6336336 29.4379613,22.478979 C29.4379613,28.6186186 26.6562275,32.9234234 18.9529646,34.3348348 C18.5250056,34.475976 18.5250056,35.5345345 19.0242912,35.7462462 C21.948678,35.7462462 25.7289829,35.1111111 28.8673492,33.6291291 C31.9343891,32.1471471 36,28.9009009 36,22.4084084 C36,17.539039 33.5748987,13.8693694 30.2938794,11.8228228 C26.9415335,9.77627628 22.51929,9 16.5991899,9 C11.311879,9 7.21933126,9.05629052 3.7117999,9.42024015 L3.7117999,9.42024015 Z M2.54107029,11.3516051 C0.919644998,14.3743656 0,17.8297855 0,21.5 C0,28.3774227 3.22915404,34.5006361 8.25398849,38.4361665 L8.25398849,19.1621622 C8.25398849,13.1636637 8.11133547,11.963964 4.90164262,11.6111111 L2.54107029,11.3516051 L2.54107029,11.3516051 Z M52.951042,25.1424944 C52.951042,27.1349185 52.8561647,27.4195505 51.7745631,27.5144279 L51.1483726,27.5713543 C51.0345198,27.6852071 51.0724708,27.9888146 51.1863236,28.045741 C52.3058762,28.00779 52.951042,27.9888146 53.7669871,27.9888146 L55.4747792,27.9888146 C57.1635958,27.9888146 58.8524124,28.00779 60.5602045,28.045741 C60.8068856,27.5334033 61.2812723,26.0722923 61.4141006,25.408151 C61.3381987,25.2373718 61.0725421,25.1804454 60.9397139,25.2753227 C60.4463517,26.262047 59.9340141,26.9261884 59.5924557,27.1159431 C59.1749954,27.3246732 58.6247068,27.4005751 57.1635958,27.4005751 C55.4937547,27.4005751 55.0952699,27.1918449 54.8675643,26.9641393 C54.5639568,26.6415564 54.5070304,25.9963905 54.5070304,24.9906907 L54.5070304,22.3151498 C54.5070304,21.8217876 54.5639568,21.8028122 55.1332208,21.8028122 L56.2337979,21.8028122 C56.9738412,21.8028122 57.4292524,21.8217876 57.6949089,21.8976895 C58.0744183,21.9925668 58.2072465,22.2771988 58.2831484,22.6187573 L58.4539276,23.3588005 C58.548805,23.4726533 58.8713879,23.4726533 58.9472898,23.339825 C58.9472898,22.9223647 58.8713879,22.201297 58.8713879,21.5181801 C58.8713879,20.7971124 58.9472898,20.0570691 58.9472898,19.6016579 C58.8713879,19.4688297 58.548805,19.4688297 58.4539276,19.5826825 L58.3021239,20.3606766 C58.2072465,20.8350633 58.0744183,20.9489161 57.8467127,21.024818 C57.6190071,21.1007199 57.0307676,21.1386708 56.2337979,21.1386708 L55.1332208,21.1386708 C54.5639568,21.1386708 54.5070304,21.1386708 54.5070304,20.6073577 L54.5070304,16.8122642 C54.5070304,16.0911964 54.5070304,16.0532455 55.0762944,16.0532455 L56.4425281,16.0532455 C57.2774486,16.0532455 57.8846636,16.072221 58.2831484,16.1670983 C59.2698727,16.4137794 59.4406519,17.0779207 59.7252839,17.9697677 C59.8201613,18.0836205 60.1237688,18.0456696 60.1996706,17.9318168 C60.1237688,17.0968962 60.009916,15.7306626 59.8960632,15.4080796 C59.6683575,15.465006 58.548805,15.465006 57.334375,15.465006 L53.7669871,15.465006 C52.988993,15.465006 52.3438271,15.4460305 51.527882,15.4080796 C51.4140292,15.465006 51.3760782,15.8065644 51.4899311,15.8824663 L51.7935385,15.9204172 C52.9130911,16.0532455 52.951042,16.3378775 52.951042,18.3113261 L52.951042,25.1424944 Z M75.610461,27.5144279 C75.0222215,27.4575015 74.5288593,27.153894 73.8836934,26.262047 L70.6768394,21.7458858 C70.4491338,21.4422783 70.4301583,21.30945 70.4301583,21.2525236 C70.4301583,21.1955972 70.5060602,21.0627689 70.619913,20.8919897 C71.5307354,19.6206334 72.3466805,18.4821053 73.0867238,17.533332 C73.8647179,16.5466077 74.5478348,15.9773436 75.1170988,15.9204172 L75.57251,15.8824663 C75.6863628,15.7686135 75.6673874,15.5029569 75.5345591,15.4080796 C74.9463196,15.4460305 74.4150065,15.465006 73.7129142,15.465006 C72.972871,15.465006 72.365656,15.4460305 71.7015146,15.4080796 C71.5497109,15.4839815 71.5497109,15.749638 71.6635637,15.8824663 L72.1569259,15.9393927 C72.4984843,15.9773436 72.7831163,16.0911964 72.7831163,16.1860738 C72.7831163,16.318902 72.6692635,16.5655831 72.5174598,16.8122642 C72.1759013,17.3815282 70.4681093,20.0760446 69.9747471,20.6832596 C69.2916303,19.8293635 68.1720777,18.1215715 67.5458873,17.210749 C67.1663779,16.6604605 66.9766232,16.3378775 66.9766232,16.1670983 C66.9766232,16.0532455 67.2043289,15.9393927 67.5458873,15.9204172 L68.0772004,15.8824663 C68.1910532,15.749638 68.1720777,15.465006 68.0392494,15.4080796 C67.4889609,15.4460305 66.6350648,15.465006 65.8950216,15.465006 C65.2119048,15.465006 64.5857143,15.4460305 63.6938674,15.4080796 C63.5800146,15.465006 63.5610391,15.7686135 63.6559164,15.8824663 L64.2631314,16.0152946 C64.9272728,16.1670983 65.2878066,16.5466077 65.9139971,17.4384546 L68.7603172,21.5181801 C68.9121209,21.7269103 68.9880228,21.8976895 68.9880228,21.9546159 C68.9880228,22.0115423 68.9500719,22.1443706 68.8172436,22.3341252 C67.7735929,23.8521626 66.4642856,25.5220038 66.23658,25.8256113 C65.667316,26.58463 65.0031746,27.4005751 63.9784994,27.5144279 L63.5041127,27.5713543 C63.3712844,27.6852071 63.3902599,27.9698391 63.5610391,28.045741 C64.1682541,28.00779 64.8703464,27.9888146 65.5155122,27.9888146 C66.1606781,27.9888146 66.8817459,28.00779 67.5648627,28.045741 C67.6787155,27.9508636 67.7166665,27.6852071 67.5838382,27.5713543 L67.0715006,27.5144279 C66.6919912,27.4764769 66.521212,27.3815996 66.521212,27.2677468 C66.521212,27.1349185 66.6160894,26.9261884 66.7678931,26.6605318 C67.5269118,25.3322491 68.9310964,23.2639232 69.443434,22.6187573 C70.2783546,23.7003589 71.3409808,25.2753227 72.1569259,26.4328262 C72.5364352,26.9641393 72.5743862,27.153894 72.5743862,27.2677468 C72.5743862,27.4005751 72.365656,27.4764769 71.9292203,27.5144279 L71.3789317,27.5713543 C71.2840544,27.6852071 71.3030298,27.9318882 71.4168826,28.045741 C72.0999995,28.00779 73.0108219,27.9888146 73.8647179,27.9888146 C74.6427121,27.9888146 75.3827553,28.00779 76.2556268,28.045741 C76.3884551,27.9508636 76.4074306,27.6852071 76.2746023,27.5713543 L75.610461,27.5144279 Z M88.6330531,16.6794359 C88.6330531,16.072221 88.6520286,15.9963191 89.6577283,15.9963191 C91.631177,15.9963191 92.7127786,17.1917736 92.7127786,19.0323939 C92.7127786,20.6832596 91.9727354,21.8407631 89.9233849,22.2202724 C89.8095321,22.2582234 89.8095321,22.5428554 89.9423603,22.5997818 C90.7203545,22.5997818 91.7260543,22.4290026 92.5609749,22.0305178 C93.37692,21.6320329 94.4585216,20.7591614 94.4585216,19.0134184 C94.4585216,17.7041112 93.8133557,16.7173869 92.9404842,16.1670983 C92.0486372,15.6168097 90.8721583,15.4080796 89.2971945,15.4080796 C87.7222306,15.4080796 86.5457517,15.4270551 85.5400519,15.5598833 C85.3882481,15.6357852 85.3692727,15.9204172 85.502101,16.03427 L86.1852178,16.1101719 C87.0391138,16.2050492 87.0770648,16.5276322 87.0770648,18.1405469 L87.0770648,25.1424944 C87.0770648,27.1349185 87.0391138,27.3626241 85.9385367,27.5144279 L85.5400519,27.5713543 C85.4261991,27.6852071 85.46415,27.9888146 85.5780028,28.045741 C86.4129234,28.00779 87.0960402,27.9888146 87.8930099,27.9888146 C88.6520286,27.9888146 89.278219,28.00779 90.3598206,28.045741 C90.4736734,27.9888146 90.5116244,27.6662316 90.3977716,27.5713543 L89.8854339,27.5144279 C88.671004,27.3815996 88.6330531,27.1349185 88.6330531,25.1424944 L88.6330531,16.6794359 Z M99.5276821,25.1424944 C99.5276821,27.1349185 99.4897312,27.3815996 98.3891541,27.5144279 L97.9147674,27.5713543 C97.8009146,27.7041825 97.8388655,27.9888146 97.9527183,28.045741 C98.8445653,28.00779 99.5276821,27.9888146 100.324652,27.9888146 C101.08367,27.9888146 101.728836,28.00779 102.582732,28.045741 C102.696585,27.9888146 102.734536,27.6662316 102.620683,27.5713543 L102.222199,27.5144279 C101.121621,27.3626241 101.08367,27.1349185 101.08367,25.1424944 L101.08367,22.7515855 C101.08367,22.3531007 101.121621,22.3341252 101.975517,22.3341252 C102.734536,22.3341252 103.038144,22.5238799 103.322776,22.9413402 C103.911015,23.7952362 104.689009,25.1045435 105.182371,25.8066358 C106.52963,27.723158 107.497378,28.1975447 109.110293,28.1975447 C109.470827,28.1975447 109.774435,28.1595938 109.945214,28.1026674 C110.040091,28.0267655 110.021116,27.8749618 109.926238,27.8370108 C109.413901,27.7990599 108.939514,27.5903297 108.616931,27.3056977 C107.326599,26.2240961 106.3209,24.7060587 104.802862,22.2582234 C104.707985,22.1064196 104.613107,21.916665 104.707985,21.8028122 C105.656758,21.4233028 107.079918,20.4365785 107.079918,18.6339091 C107.079918,17.3056264 106.415777,16.4517303 105.504954,15.9773436 C104.632083,15.5029569 103.51253,15.4080796 102.336051,15.4080796 C100.476456,15.4080796 99.1671483,15.465006 98.1045221,15.5598833 C97.9527183,15.6357852 97.9527183,15.9393927 98.0855466,16.03427 L98.6927616,16.1101719 C99.4707557,16.2050492 99.5276821,16.5276322 99.5276821,18.3303016 L99.5276821,25.1424944 Z M101.08367,16.6035341 C101.08367,16.072221 101.140597,15.9963191 102.317076,15.9963191 C104.423353,15.9963191 105.353151,17.4194792 105.353151,18.9185411 C105.353151,20.2088729 104.916715,20.8730142 104.404377,21.2714991 C103.854089,21.6889593 103.133021,21.7648612 102.449904,21.7648612 C101.482155,21.7648612 101.197523,21.7269103 101.140597,21.6699839 C101.08367,21.594082 101.08367,21.3853519 101.08367,21.0437935 L101.08367,16.6035341 Z M118.316106,28.292422 C121.978371,28.292422 124.900593,25.5030283 124.900593,21.6699839 C124.900593,18.3303016 122.699439,15.1613985 118.316106,15.1613985 C114.407159,15.1613985 111.560839,18.0646451 111.560839,21.8597386 C111.560839,25.2753227 114.103552,28.292422 118.316106,28.292422 L118.316106,28.292422 Z M118.562787,27.7041825 C114.82462,27.7041825 113.458386,24.0608928 113.458386,21.2525236 C113.458386,17.0968962 116.020074,15.749638 117.993523,15.749638 C121.617837,15.749638 123.003046,19.1272712 123.003046,22.2582234 C123.003046,25.9963905 120.839843,27.7041825 118.562787,27.7041825 L118.562787,27.7041825 Z M131.791398,16.8122642 C131.791398,16.0911964 131.791398,16.0532455 132.360662,16.0532455 L133.518166,16.0532455 C134.315136,16.0532455 134.941326,16.0532455 135.358786,16.1670983 C136.30756,16.4137794 136.535265,17.1158717 136.687069,17.9697677 C136.819897,18.0836205 137.085554,18.0266941 137.14248,17.9128413 C137.104529,17.1917736 137.085554,16.2809511 137.085554,15.4080796 C136.838873,15.465006 135.738296,15.465006 134.523866,15.465006 L131.03238,15.465006 C130.273361,15.465006 129.628195,15.4460305 128.831225,15.4080796 C128.717373,15.465006 128.679422,15.8065644 128.793274,15.8824663 L129.096882,15.9204172 C130.197459,16.0532455 130.23541,16.318902 130.23541,18.3113261 L130.23541,25.1424944 C130.23541,27.1349185 130.197459,27.3815996 129.096882,27.5144279 L128.622495,27.5713543 C128.508642,27.6852071 128.546593,27.9888146 128.660446,28.045741 C129.552293,28.00779 130.197459,27.9888146 131.03238,27.9888146 C131.791398,27.9888146 132.436564,28.00779 133.556117,28.045741 C133.66997,27.9888146 133.707921,27.6472561 133.594068,27.5713543 L132.948902,27.5144279 C131.829349,27.4195505 131.791398,27.1349185 131.791398,25.1424944 L131.791398,22.5049045 C131.791398,22.0115423 131.848325,21.9925668 132.417589,21.9925668 L133.707921,21.9925668 C134.428988,21.9925668 134.903375,22.0115423 135.169032,22.0874442 C135.529565,22.201297 135.681369,22.4669535 135.776246,22.8085119 L135.966001,23.5485552 C136.098829,23.662408 136.383461,23.662408 136.459363,23.5485552 C136.459363,23.1121194 136.383461,22.3910516 136.383461,21.7079348 C136.383461,21.0058425 136.459363,20.2468238 136.459363,19.7914126 C136.383461,19.6775598 136.060879,19.6775598 135.966001,19.7914126 L135.795222,20.5504313 C135.681369,21.0437935 135.529565,21.1386708 135.320835,21.2145727 C135.09313,21.2904745 134.485915,21.3284255 133.707921,21.3284255 L132.417589,21.3284255 C131.848325,21.3284255 131.791398,21.3284255 131.791398,20.8160878 L131.791398,16.8122642 Z M142.477297,25.1424944 C142.477297,27.1349185 142.38242,27.4195505 141.300818,27.5144279 L140.674628,27.5713543 C140.560775,27.6852071 140.598726,27.9888146 140.712579,28.045741 C141.832131,28.00779 142.477297,27.9888146 143.293242,27.9888146 L145.001034,27.9888146 C146.689851,27.9888146 148.378668,28.00779 150.08646,28.045741 C150.333141,27.5334033 150.807527,26.0722923 150.940356,25.408151 C150.864454,25.2373718 150.598797,25.1804454 150.465969,25.2753227 C149.972607,26.262047 149.460269,26.9261884 149.118711,27.1159431 C148.701251,27.3246732 148.150962,27.4005751 146.689851,27.4005751 C145.02001,27.4005751 144.621525,27.1918449 144.393819,26.9641393 C144.090212,26.6415564 144.033286,25.9963905 144.033286,24.9906907 L144.033286,22.3151498 C144.033286,21.8217876 144.090212,21.8028122 144.659476,21.8028122 L145.760053,21.8028122 C146.500096,21.8028122 146.955508,21.8217876 147.221164,21.8976895 C147.600673,21.9925668 147.733502,22.2771988 147.809404,22.6187573 L147.980183,23.3588005 C148.07506,23.4726533 148.397643,23.4726533 148.473545,23.339825 C148.473545,22.9223647 148.397643,22.201297 148.397643,21.5181801 C148.397643,20.7971124 148.473545,20.0570691 148.473545,19.6016579 C148.397643,19.4688297 148.07506,19.4688297 147.980183,19.5826825 L147.828379,20.3606766 C147.733502,20.8350633 147.600673,20.9489161 147.372968,21.024818 C147.145262,21.1007199 146.557023,21.1386708 145.760053,21.1386708 L144.659476,21.1386708 C144.090212,21.1386708 144.033286,21.1386708 144.033286,20.6073577 L144.033286,16.8122642 C144.033286,16.0911964 144.033286,16.0532455 144.60255,16.0532455 L145.968783,16.0532455 C146.803704,16.0532455 147.410919,16.072221 147.809404,16.1670983 C148.796128,16.4137794 148.966907,17.0779207 149.251539,17.9697677 C149.346416,18.0836205 149.650024,18.0456696 149.725926,17.9318168 C149.650024,17.0968962 149.536171,15.7306626 149.422318,15.4080796 C149.194613,15.465006 148.07506,15.465006 146.86063,15.465006 L143.293242,15.465006 C142.515248,15.465006 141.870082,15.4460305 141.054137,15.4080796 C140.940284,15.465006 140.902333,15.8065644 141.016186,15.8824663 L141.319794,15.9204172 C142.439346,16.0532455 142.477297,16.3378775 142.477297,18.3113261 L142.477297,25.1424944 Z M161.455475,24.7819605 C161.455475,22.9792911 160.278996,21.878714 159.083542,21.1386708 L157.565505,20.1898974 C156.863412,19.7534617 155.95259,18.956492 155.95259,17.8559149 C155.95259,16.9830434 156.351075,15.749638 158.210671,15.749638 C160.032315,15.749638 160.544653,16.9830434 160.791334,17.8938658 C160.886211,18.0077187 161.189819,17.9507923 161.265721,17.8369394 C161.265721,17.0399698 161.094942,15.9773436 160.924162,15.5219324 C160.772359,15.5219324 160.506702,15.4839815 160.260021,15.4080796 C159.766659,15.2752513 159.083542,15.1613985 158.495303,15.1613985 C156.028492,15.1613985 154.624307,16.6225095 154.624307,18.4251789 C154.624307,19.9811673 155.724884,21.0627689 156.673658,21.6889593 L158.476327,22.8654383 C159.861536,23.7572853 160.032315,24.6870832 160.032315,25.5220038 C160.032315,26.6605318 159.254321,27.7041825 157.660382,27.7041825 C155.459228,27.7041825 154.681234,25.8445867 154.396602,24.8768379 C154.3207,24.7629851 154.036068,24.800936 153.94119,24.9337643 C153.979141,25.8256113 154.225822,27.1728695 154.453528,27.5903297 C154.814062,27.7990599 155.819762,28.292422 157.413701,28.292422 C159.880512,28.292422 161.455475,26.869262 161.455475,24.7819605 L161.455475,24.7819605 Z M172.767565,24.7819605 C172.767565,22.9792911 171.591086,21.878714 170.395631,21.1386708 L168.877594,20.1898974 C168.175502,19.7534617 167.264679,18.956492 167.264679,17.8559149 C167.264679,16.9830434 167.663164,15.749638 169.52276,15.749638 C171.344405,15.749638 171.856742,16.9830434 172.103423,17.8938658 C172.198301,18.0077187 172.501908,17.9507923 172.57781,17.8369394 C172.57781,17.0399698 172.407031,15.9773436 172.236252,15.5219324 C172.084448,15.5219324 171.818791,15.4839815 171.57211,15.4080796 C171.078748,15.2752513 170.395631,15.1613985 169.807392,15.1613985 C167.340581,15.1613985 165.936396,16.6225095 165.936396,18.4251789 C165.936396,19.9811673 167.036974,21.0627689 167.985747,21.6889593 L169.788416,22.8654383 C171.173626,23.7572853 171.344405,24.6870832 171.344405,25.5220038 C171.344405,26.6605318 170.566411,27.7041825 168.972471,27.7041825 C166.771317,27.7041825 165.993323,25.8445867 165.708691,24.8768379 C165.632789,24.7629851 165.348157,24.800936 165.25328,24.9337643 C165.291231,25.8256113 165.537912,27.1728695 165.765617,27.5903297 C166.126151,27.7990599 167.131851,28.292422 168.72579,28.292422 C171.192601,28.292422 172.767565,26.869262 172.767565,24.7819605 L172.767565,24.7819605 Z M183.415513,28.292422 C187.077778,28.292422 190,25.5030283 190,21.6699839 C190,18.3303016 187.798846,15.1613985 183.415513,15.1613985 C179.506566,15.1613985 176.660246,18.0646451 176.660246,21.8597386 C176.660246,25.2753227 179.202959,28.292422 183.415513,28.292422 L183.415513,28.292422 Z M183.662194,27.7041825 C179.924027,27.7041825 178.557793,24.0608928 178.557793,21.2525236 C178.557793,17.0968962 181.119481,15.749638 183.09293,15.749638 C186.717244,15.749638 188.102453,19.1272712 188.102453,22.2582234 C188.102453,25.9963905 185.93925,27.7041825 183.662194,27.7041825 L183.662194,27.7041825 Z" id="Mask" fill="#5779CC" sketch:type="MSShapeGroup"></path>
    </g>
</svg>