<?xml version="1.0" encoding="UTF-8" standalone="no"?>
<svg width="100px" height="100px" viewBox="0 0 100 100" version="1.1" xmlns="http://www.w3.org/2000/svg" xmlns:xlink="http://www.w3.org/1999/xlink" xmlns:sketch="http://www.bohemiancoding.com/sketch/ns">
    <!-- Generator: Sketch Beta 3.4 (15138) - http://www.bohemiancoding.com/sketch -->
    <title>Page 1</title>
    <desc>Created with Sketch Beta.</desc>
    <defs></defs>
    <g id="Design" stroke="none" stroke-width="1" fill="none" fill-rule="evenodd" sketch:type="MSPage">
        <g id="404" sketch:type="MSArtboardGroup" transform="translate(-576.000000, -381.000000)">
            <g id="Group" sketch:type="MSLayerGroup" transform="translate(330.000000, 381.000000)">
                <g id="Page-1" transform="translate(246.000000, 0.000000)" sketch:type="MSShapeGroup">
                    <path d="M50,0 C22.386,0 0,22.386 0,50 C0,77.615 22.386,100 50,100 C77.616,100 100,77.615 100,50 C100,22.386 77.615,0 50,0" id="Fill-1" fill="#324D5B"></path>
                    <path d="M42,34.999 L42,35.999 L47.512,35.999 C47.399,35.645 47.285,35.326 47.172,34.999 L42,34.999 Z M39.359,68.435 C25.306,72.22 17.871,55.934 15.62,47.481 C14.58,43.579 14.126,40.624 14.005,38.717 C13.992,38.519 13.998,38.352 14.012,38.199 C13.283,38.243 12.934,38.622 13.005,39.717 C13.126,41.623 13.58,44.578 14.62,48.481 C16.87,56.933 24.306,73.219 38.359,69.434 C41.418,68.61 43.716,67.109 45.441,65.193 C43.851,66.629 41.861,67.76 39.359,68.435 L39.359,68.435 Z M31,44.966 L21.014,47.597 C21.014,47.597 21.196,47.854 21.533,48.197 L30,45.966 C30,45.966 29.88,47.512 28.838,48.895 C30.809,47.404 31,44.966 31,44.966 L31,44.966 Z M36.738,54.498 C34.049,55.261 32.285,56.599 31.123,57.936 C32.236,56.962 33.727,56.068 35.738,55.498 C37.795,54.915 39.55,54.919 41,55.199 L41,54.065 C39.763,53.952 38.345,54.042 36.738,54.498 L36.738,54.498 Z" id="Fill-3" fill="#2D4552"></path>
                    <path d="M52.059,75.27 C33.853,70.389 36.054,47.192 39,36.2 C40.213,31.67 41.46,28.303 42.494,26.046 C41.877,25.919 41.366,26.244 40.861,27.271 C39.763,29.498 38.359,33.124 37,38.2 C34.055,49.192 31.854,72.388 50.059,77.269 C58.64,79.568 65.325,76.074 70.308,70.587 C65.578,74.871 59.539,77.273 52.059,75.27 M68,61.434 L45.007,55.006 C45.007,55.006 45.256,56.268 46.211,57.902 L65.57,63.314 C67.164,62.392 68,61.434 68,61.434 M70.746,47.241 C66.187,45.941 63.385,49.774 63.049,50.262 C64.375,49.319 66.309,48.546 68.746,49.241 C71.221,49.946 72.531,51.682 73.226,53.221 L75.994,54.009 C75.994,54.009 75.611,48.625 70.746,47.241 M48.744,43.236 C51.223,43.94 52.534,45.678 53.227,47.216 L55.991,48.001 C55.991,48.001 55.614,42.618 50.745,41.235 C46.19,39.941 43.387,43.766 43.046,44.261 C44.371,43.317 46.306,42.544 48.744,43.236" id="Fill-5" fill="#2D4552"></path>
                    <path d="M21.013,47.597 L31,44.966 C31,44.966 30.709,48.808 26.965,49.795 C23.22,50.781 21.013,47.597 21.013,47.597 L21.013,47.597 Z M42,62.999 L42,58.318 L28.994,62.006 C28.994,62.006 29.955,56.422 36.738,54.498 C38.795,53.915 40.55,53.919 42,54.199 L42,34.999 L48.512,34.999 C47.803,32.808 47.117,31.121 46.541,29.949 C45.588,28.009 44.611,29.295 42.393,31.15 C40.831,32.455 36.883,35.239 30.942,36.84 C25.001,38.442 20.198,38.017 18.194,37.67 C15.353,37.18 13.867,36.556 14.006,38.717 C14.127,40.623 14.581,43.578 15.621,47.481 C17.871,55.933 25.307,72.219 39.36,68.434 C43.031,67.445 45.622,65.49 47.418,62.998 L42,62.998 L42,62.999 Z" id="Fill-7" fill="#E2574C"></path>
                    <path d="M63.016,50.312 C63.016,50.312 65.881,45.853 70.746,47.24 C75.611,48.625 75.994,54.008 75.994,54.008 L63.016,50.312 L63.016,50.312 Z M54.887,64.338 C46.328,61.831 45.008,55.006 45.008,55.006 L68,61.434 C68,61.433 63.359,66.814 54.887,64.338 L54.887,64.338 Z M43.009,44.315 C43.009,44.315 45.878,39.853 50.744,41.236 C55.613,42.619 55.99,48.002 55.99,48.002 L43.009,44.315 Z M79.586,35.221 C76.99,35.676 70.762,36.243 63.065,34.18 C55.366,32.118 50.258,28.512 48.234,26.817 C45.365,24.414 44.103,22.744 42.861,25.27 C41.763,27.498 40.359,31.124 39,36.2 C36.055,47.192 33.854,70.388 52.059,75.269 C70.26,80.146 79.95,58.956 82.895,47.963 C84.254,42.888 84.85,39.045 85.014,36.567 C85.201,33.76 83.273,34.575 79.586,35.221 L79.586,35.221 Z" id="Fill-9" fill="#EDEDED"></path>
                    <path d="M21.013,47.597 L31,44.966 C31,44.966 30.709,48.808 26.965,49.795 C23.22,50.781 21.013,47.597 21.013,47.597 M37.455,59.607 L28.994,62.005 C28.994,62.005 29.913,56.769 36.146,54.694 L31.355,36.714 L30.941,36.84 C25,38.442 20.197,38.017 18.193,37.67 C15.352,37.18 13.866,36.556 14.005,38.717 C14.126,40.623 14.58,43.578 15.62,47.481 C17.87,55.933 25.306,72.219 39.359,68.434 L39.773,68.304 L37.455,59.607" id="Fill-11" fill="#D65348"></path>
                    <path d="M43.009,44.315 C43.009,44.315 45.878,39.853 50.744,41.236 C55.613,42.619 55.99,48.002 55.99,48.002 L43.009,44.315 Z M55.273,64.432 L54.886,64.338 C46.327,61.831 45.007,55.006 45.007,55.006 L56.863,58.32 L63.14,34.2 L63.064,34.18 C55.365,32.118 50.257,28.512 48.233,26.817 C45.364,24.414 44.102,22.744 42.86,25.27 C41.763,27.498 40.359,31.124 39,36.2 C36.055,47.192 33.854,70.388 52.059,75.269 L52.432,75.353 L55.273,64.432 L55.273,64.432 Z" id="Fill-13" fill="#E1E1E1"></path>
                    <path d="M37,38.2 C35.834,42.552 34.791,48.816 35.078,55.099 C35.592,54.876 36.135,54.668 36.738,54.497 L37.158,54.403 C36.646,47.692 37.753,40.853 39,36.2 C39.316,35.023 39.633,33.928 39.949,32.907 C39.44,33.231 38.892,33.563 38.268,33.905 C37.847,35.204 37.422,36.624 37,38.2 M37.886,59.484 L35.617,60.128 C36.153,63.15 37.098,66.05 38.581,68.612 C38.839,68.555 39.095,68.506 39.358,68.434 C40.047,68.248 40.686,68.018 41.301,67.767 C39.644,65.308 38.548,62.476 37.886,59.484" id="Fill-15" fill="#C04B41"></path>
                </g>
            </g>
        </g>
    </g>
</svg>