<?xml version="1.0" encoding="UTF-8" standalone="no"?>
<svg width="12px" height="20px" viewBox="0 0 12 20" version="1.1" xmlns="http://www.w3.org/2000/svg" xmlns:xlink="http://www.w3.org/1999/xlink" xmlns:sketch="http://www.bohemiancoding.com/sketch/ns">
    <!-- Generator: Sketch Beta 3.4 (14672) - http://www.bohemiancoding.com/sketch -->
    <title>Imported Layers</title>
    <desc>Created with Sketch Beta.</desc>
    <defs></defs>
    <g id="Design" stroke="none" stroke-width="1" fill="none" fill-rule="evenodd" sketch:type="MSPage">
        <g id="Состояния" sketch:type="MSArtboardGroup" transform="translate(-647.000000, -246.000000)" fill="#5879CC">
            <g id="Пикер-даты" sketch:type="MSLayerGroup" transform="translate(637.000000, 116.000000)">
                <g id="Input" transform="translate(0.000000, 44.000000)" sketch:type="MSShapeGroup">
                    <g id="Arrow" transform="translate(16.000000, 96.000000) scale(-1, 1) translate(-16.000000, -96.000000) translate(10.000000, 86.000000)">
                        <path d="M11.536864,17.4323215 C12.1543787,18.0201635 12.1543787,18.9719285 11.536864,19.5597706 C10.9193493,20.1463083 9.91877235,20.1471779 9.3003346,19.5597706 L0.463136033,11.0643224 C-0.154378678,10.4764803 -0.154378678,9.52384573 0.463136033,8.93600367 L9.3003346,0.440555449 C9.91877235,-0.146851816 10.9184262,-0.146851816 11.536864,0.440555449 C12.1543787,1.02839751 12.1543787,1.9801625 11.536864,2.56800456 L4.28960425,9.99994562 L11.536864,17.4323215" id="Imported-Layers" transform="translate(6.000000, 10.000000) rotate(-180.000000) translate(-6.000000, -10.000000) "></path>
                    </g>
                </g>
            </g>
        </g>
    </g>
</svg>