<?xml version="1.0" encoding="UTF-8" standalone="no"?>
<svg width="20px" height="17px" viewBox="0 0 20 17" version="1.1" xmlns="http://www.w3.org/2000/svg" xmlns:xlink="http://www.w3.org/1999/xlink" xmlns:sketch="http://www.bohemiancoding.com/sketch/ns">
    <!-- Generator: Sketch Beta 3.4 (15510) - http://www.bohemiancoding.com/sketch -->
    <title>Shape</title>
    <desc>Created with Sketch Beta.</desc>
    <defs></defs>
    <g id="Design" stroke="none" stroke-width="1" fill="none" fill-rule="evenodd" sketch:type="MSPage">
        <g id="Общение" sketch:type="MSArtboardGroup" transform="translate(-30.000000, -972.000000)" fill="#FCFCFC">
            <g id="Side-Menu" sketch:type="MSLayerGroup">
                <g id="Imported-Layers-+-$title-+-Психолог" transform="translate(21.000000, 888.000000)" sketch:type="MSShapeGroup">
                    <g id="$title-+-Психолог">
                        <g transform="translate(9.000000, 7.000000)">
                            <path d="M18,77.46875 L2,77.46875 C0.9,77.46875 0,78.36875 0,79.46875 L0,91.46875 C0,92.56875 0.9,93.46875 2,93.46875 L18,93.46875 C19.1,93.46875 20,92.56875 20,91.46875 L20,79.46875 C20,78.36875 19.1,77.46875 18,77.46875 L18,77.46875 Z M18,81.46875 L10,86.46875 L2,81.46875 L2,79.46875 L10,84.46875 L18,79.46875 L18,81.46875 L18,81.46875 Z" id="Shape"></path>
                        </g>
                    </g>
                </g>
            </g>
        </g>
    </g>
</svg>