<?xml version="1.0" encoding="UTF-8" standalone="no"?>
<svg width="12px" height="12px" viewBox="0 0 12 12" version="1.1" xmlns="http://www.w3.org/2000/svg" xmlns:xlink="http://www.w3.org/1999/xlink" xmlns:sketch="http://www.bohemiancoding.com/sketch/ns">
    <!-- Generator: Sketch Beta 3.4 (15510) - http://www.bohemiancoding.com/sketch -->
    <title>Shape</title>
    <desc>Created with Sketch Beta.</desc>
    <defs></defs>
    <g id="Design" stroke="none" stroke-width="1" fill="none" fill-rule="evenodd" sketch:type="MSPage">
        <g id="Общение" sketch:type="MSArtboardGroup" transform="translate(-260.000000, -190.000000)" fill="#ACACAC">
            <g id="Group" sketch:type="MSLayerGroup" transform="translate(231.000000, 170.000000)">
                <path d="M37.3333333,27.3333333 L36.8,27.3333333 L36.6,27.1333333 C37.2666667,26.4 37.6666667,25.4 37.6666667,24.3333333 C37.6666667,21.9333333 35.7333333,20 33.3333333,20 C30.9333333,20 29,21.9333333 29,24.3333333 C29,26.7333333 30.9333333,28.6666667 33.3333333,28.6666667 C34.4,28.6666667 35.4,28.2666667 36.1333333,27.6 L36.3333333,27.8 L36.3333333,28.3333333 L39.6666667,31.6666667 L40.6666667,30.6666667 L37.3333333,27.3333333 L37.3333333,27.3333333 Z M33.3333333,27.3333333 C31.6666667,27.3333333 30.3333333,26 30.3333333,24.3333333 C30.3333333,22.6666667 31.6666667,21.3333333 33.3333333,21.3333333 C35,21.3333333 36.3333333,22.6666667 36.3333333,24.3333333 C36.3333333,26 35,27.3333333 33.3333333,27.3333333 L33.3333333,27.3333333 Z" id="Shape" sketch:type="MSShapeGroup"></path>
            </g>
        </g>
    </g>
</svg>