<?xml version="1.0" encoding="UTF-8" standalone="no"?>
<svg width="602px" height="444px" viewBox="0 0 602 444" version="1.1" xmlns="http://www.w3.org/2000/svg" xmlns:xlink="http://www.w3.org/1999/xlink" xmlns:sketch="http://www.bohemiancoding.com/sketch/ns">
    <!-- Generator: Sketch Beta 3.4 (14672) - http://www.bohemiancoding.com/sketch -->
    <title>Иконки</title>
    <desc>Created with Sketch Beta.</desc>
    <defs></defs>
    <g id="Design" stroke="none" stroke-width="1" fill="none" fill-rule="evenodd" sketch:type="MSPage">
        <g id="Иконки" sketch:type="MSArtboardGroup">
            <path d="M67,19 L65,19 L65,28 L52,28 L52,30 C52,30.6 52.4,31 53,31 L64,31 L68,35 L68,20 C68,19.4 67.6,19 67,19 L67,19 Z M63,25 L63,16 C63,15.4 62.6,15 62,15 L49,15 C48.4,15 48,15.4 48,16 L48,30 L52,26 L62,26 C62.6,26 63,25.6 63,25 L63,25 Z" id="Shape" fill="#5879CC" sketch:type="MSShapeGroup"></path>
            <path d="M31,15 L17,15 C15.9,15 15,15.9 15,17 L15,31 C15,32.1 15.9,33 17,33 L31,33 C32.1,33 33,32.1 33,31 L33,17 C33,15.9 32.1,15 31,15 L31,15 Z M21,29 L19,29 L19,27 L21,27 L21,29 L21,29 Z M21,25 L19,25 L19,23 L21,23 L21,25 L21,25 Z M21,21 L19,21 L19,19 L21,19 L21,21 L21,21 Z M29,29 L22,29 L22,27 L29,27 L29,29 L29,29 Z M29,25 L22,25 L22,23 L29,23 L29,25 L29,25 Z M29,21 L22,21 L22,19 L29,19 L29,21 L29,21 Z" id="Shape" fill="#5879CC" sketch:type="MSShapeGroup"></path>
            <path d="M95.5,26 L94.7,26 L94.4,25.7 C95.4,24.6 96,23.1 96,21.5 C96,17.9 93.1,15 89.5,15 C85.9,15 83,17.9 83,21.5 C83,25.1 85.9,28 89.5,28 C91.1,28 92.6,27.4 93.7,26.4 L94,26.7 L94,27.5 L99,32.5 L100.5,31 L95.5,26 L95.5,26 Z M89.5,26 C87,26 85,24 85,21.5 C85,19 87,17 89.5,17 C92,17 94,19 94,21.5 C94,24 92,26 89.5,26 L89.5,26 Z" id="Shape" fill="#5879CC" sketch:type="MSShapeGroup"></path>
            <path d="M25,48 C19.5,48 15,52.5 15,58 C15,63.5 19.5,68 25,68 C30.5,68 35,63.5 35,58 C35,52.5 30.5,48 25,48 L25,48 Z M17.0609816,58.9867427 C17.5510388,62.9256958 20.93393,66 25,66 C29.4,66 33,62.4 33,58 C33,53.6 29.4,50 25,50 C20.9384929,50 17.5586321,53.0674082 17.0626424,56.9999999 L24.863636,56.9999999 L22.8370367,54.7043181 L24.1851848,53.3806817 L28.9999997,57.9933712 L24.1851852,62.6060606 L22.837037,61.2824242 L24.8636364,58.9867427 L17.0609816,58.9867427 Z" id="Shape" fill="#67C2AE" sketch:type="MSShapeGroup"></path>
            <path d="M91,48 C85.5,48 81,52.5 81,58 C81,63.5 85.5,68 91,68 C96.5,68 101,63.5 101,58 C101,52.5 96.5,48 91,48 L91,48 Z M97.098995,52.8372863 C95.6285557,51.1043375 93.436982,50 91,50 C86.6,50 83,53.6 83,58 C83,62.4 86.6,66 91,66 C95.4,66 99,62.4 99,58 C99,56.8687343 98.7620277,55.7903513 98.3336707,54.8124387 L90.6190476,62 L86.3333333,58.0576923 L88,56.4871795 L90.6190476,58.8589744 L97.098995,52.8372863 Z" id="Shape" fill="#9096A6" sketch:type="MSShapeGroup"></path>
            <path d="M58,48 C52.5,48 48,52.5 48,58 C48,63.5 52.5,68 58,68 C63.5,68 68,63.5 68,58 C68,52.5 63.5,48 58,48 L58,48 Z M50,58 C50,53.6 53.6,50 58,50 C62.4,50 66,53.6 66,58 C66,62.4 62.4,66 58,66 C53.6,66 50,62.4 50,58 Z M58,52 L58,58 L53.3333333,62.2641509 C55.7355712,64.5786164 59.7044859,64.5786164 62.2111689,62.2641509 C64.6134068,59.9496855 64.6134068,56.1257862 62.1067238,53.8113208 C60.9578274,52.6037736 59.5666769,52 58,52 Z" id="Shape" fill="#E47B73" sketch:type="MSShapeGroup"></path>
            <path d="M23,83 C18.6,83 15,86.6 15,91 C15,95.4 18.6,99 23,99 C27.4,99 31,95.4 31,91 C31,86.6 27.4,83 23,83 L23,83 Z M16.6785801,92.0000002 C17.1622952,95.0494589 19.8199764,97.4 23,97.4 C26.52,97.4 29.4,94.52 29.4,91 C29.4,87.48 26.52,84.6 23,84.6 C19.8199763,84.6 17.1622951,86.9505412 16.6785801,90 L23,90 L21.1708642,87.928 L22.3876543,86.7333333 L26.7333333,91 L22.3876543,95.2666667 L21.1708642,94.072 L23,92.0000002 L16.6785801,92.0000002 Z" id="Shape" fill="#67C2AE" sketch:type="MSShapeGroup"></path>
            <path d="M56,83 C51.6,83 48,86.6 48,91 C48,95.4 51.6,99 56,99 C60.4,99 64,95.4 64,91 C64,86.6 60.4,83 56,83 L56,83 Z M49.6,91 C49.6,87.48 52.48,84.6 56,84.6 C59.52,84.6 62.4,87.48 62.4,91 C62.4,94.52 59.52,97.4 56,97.4 C52.48,97.4 49.6,94.52 49.6,91 Z M56,86.2 L56,91 L52.2666667,94.4113208 C54.188457,96.2628931 57.3635887,96.2628931 59.3689351,94.4113208 C61.2907254,92.5597484 61.2907254,89.5006289 59.285379,87.6490566 C58.3662619,86.6830189 57.2533415,86.2 56,86.2 Z" id="Shape" fill="#E47B73" sketch:type="MSShapeGroup"></path>
            <path d="M89,83 C84.6,83 81,86.6 81,91 C81,95.4 84.6,99 89,99 C93.4,99 97,95.4 97,91 C97,86.6 93.4,83 89,83 L89,83 Z M93.879196,86.869829 C92.7028446,85.48347 90.9495856,84.6 89,84.6 C85.48,84.6 82.6,87.48 82.6,91 C82.6,94.52 85.48,97.4 89,97.4 C92.52,97.4 95.4,94.52 95.4,91 C95.4,90.0949874 95.2096222,89.2322811 94.8669366,88.4499509 L88.6952381,94.2 L85.2666667,91.0461538 L86.6,89.7897436 L88.6952381,91.6871795 L93.879196,86.869829 Z" id="Shape" fill="#9096A6" sketch:type="MSShapeGroup"></path>
            <path d="M27,124.666667 L27,115.333333 C27,114.6 26.4,114 25.6666667,114 L16.3333333,114 C15.6,114 15,114.6 15,115.333333 L15,124.666667 C15,125.4 15.6,126 16.3333333,126 L25.6666667,126 C26.4,126 27,125.4 27,124.666667 L27,124.666667 Z M18.5,121 L20.2857143,123 L22.7857143,120 L26,124 L16,124 L18.5,121 L18.5,121 Z" id="Shape" fill="#5879CC" sketch:type="MSShapeGroup"></path>
            <path d="M49,114 C48.6,114 48,114.568421 48,115 L48,125 C48,125.431579 48.6,126 49,126 L59,126 C59.4,126 60,125.431579 60,125 L60,115 C60,114.568421 59.4,114 59,114 L49,114 Z M57,118 L50,118 L50,117 L57,117 L57,118 L57,118 Z M57,120 L50,120 L50,119 L57,119 L57,120 L57,120 Z M55,122 L50,122 L50,121 L55,121 L55,122 L55,122 Z" id="Shape" fill="#5879CC" sketch:type="MSShapeGroup"></path>
            <path d="M86.5,114 C83.4588235,114 81,116.595122 81,119.804878 C81,123.014634 83.4588235,125.609756 86.5,125.609756 L86.8235294,125.609756 L86.8235294,128 C89.9941176,126.429268 92,122.878049 92,119.804878 C92,116.595122 89.5411765,114 86.5,114 L86.5,114 Z M86,119.8 L85.3333333,121 L84.3333333,121 L85,119.8 L84,119.8 L84,118 L86,118 L86,119.8 L86,119.8 Z M89,119.8 L88.3333333,121 L87.3333333,121 L88,119.8 L87,119.8 L87,118 L89,118 L89,119.8 L89,119.8 Z" id="Shape" fill="#5879CC" sketch:type="MSShapeGroup"></path>
            <path d="M116,33 L137,24 L116,15 L116,22 L131,24 L116,26 L116,33 Z" id="Shape" fill="#5879CC" sketch:type="MSShapeGroup"></path>
            <path d="M152,29.2 L152,33 L155.8,33 L166.8,21.9 L163,18.1 L152,29.2 L152,29.2 Z M169.7,19 C170.1,18.6 170.1,18 169.7,17.6 L167.4,15.3 C167,14.9 166.4,14.9 166,15.3 L164.2,17.1 L168,20.9 L169.7,19 L169.7,19 Z" id="Shape" fill="#5879CC" sketch:type="MSShapeGroup"></path>
            <path d="M129,59 L124,59 L124,64 L129,64 L129,59 L129,59 Z M128,48 L128,50 L120,50 L120,48 L118,48 L118,50 L117,50 C115.9,50 115,50.9 115,52 L115,66 C115,67.1 115.9,68 117,68 L131,68 C132.1,68 133,67.1 133,66 L133,52 C133,50.9 132.1,50 131,50 L130,50 L130,48 L128,48 L128,48 Z M131,66 L117,66 L117,55 L131,55 L131,66 L131,66 Z" id="Shape" fill="#43464D" sketch:type="MSShapeGroup"></path>
            <path d="M114.4,114 C113.63,114 113,114.63 113,115.4 L113,128 L116,125 L125.6,125 C126.37,125 127,124.57 127,123.8 L127,115.4 C127,114.63 126.37,114 125.6,114 L114.4,114 Z M116,119 L124,119 L124,120 L116,120 L116,119 L116,119 Z M122,122 L116,122 L116,121 L122,121 L122,122 L122,122 Z M124,118 L116,118 L116,117 L124,117 L124,118 L124,118 Z" id="Shape" fill="#5879CC" sketch:type="MSShapeGroup"></path>
            <path d="M203,15 L187,15 C185.9,15 185,15.9 185,17 L185,35 L189,31 L203,31 C204.1,31 205,30.1 205,29 L205,17 C205,15.9 204.1,15 203,15 L203,15 Z M192,24 L190,24 L190,22 L192,22 L192,24 L192,24 Z M196,24 L194,24 L194,22 L196,22 L196,24 L196,24 Z M200,24 L198,24 L198,22 L200,22 L200,24 L200,24 Z" id="Shape" fill="#5879CC" sketch:type="MSShapeGroup"></path>
            <path d="M222,15 C220.9,15 220,15.9 220,17 L220,31 C220,32.1 220.9,33 222,33 L238,33 L238,17 C238,15.9 237.1,15 236,15 L222,15 Z M234,21 L224,21 L224,19 L234,19 L234,21 L234,21 Z M234,25 L224,25 L224,23 L234,23 L234,25 Z M223,28 L225,28 L225,33 L223,33 L223,28 Z M228,28 L230,28 L230,33 L228,33 L228,28 Z M233,28 L235,28 L235,33 L233,33 L233,28 Z M236,29 L237,29 L237,30 L236,30 L236,29 Z M235,30 L238,30 L238,33 L235,33 L235,30 Z" id="Shape" fill="#5879CC" sketch:type="MSShapeGroup"></path>
            <path d="M267.488889,35 C268.588889,35 269.488889,34.1 269.488889,33 L269.488889,17 C269.488889,15.9 268.588889,15 267.488889,15 L261.488889,15 L261.488889,22 L258.988889,20.5 L256.488889,22 L256.488889,15 L255.488889,15 C254.388889,15 253.488889,15.9 253.488889,17 L253.488889,33 C253.488889,34.1 254.388889,35 255.488889,35 L267.488889,35 L267.488889,35 Z" id="Shape" fill="#5879CC" sketch:type="MSShapeGroup"></path>
            <path d="M293.5,15 C288.8,15 285,18.8 285,23.5 C285,28.2 288.8,32 293.5,32 L294,32 L294,35.5 C298.9,33.2 302,28 302,23.5 C302,18.8 298.2,15 293.5,15 L293.5,15 Z M293,24 L292,26 L290.5,26 L291.5,24 L290,24 L290,21 L293,21 L293,24 L293,24 Z M297,24 L296,26 L294.5,26 L295.5,24 L294,24 L294,21 L297,21 L297,24 L297,24 Z" id="Shape" fill="#5879CC" sketch:type="MSShapeGroup"></path>
            <path d="M20.0000195,144.836809 L16.3906099,141.227399 C15.9158866,140.752676 16.0458756,141.096429 15.5711523,141.571152 C15.096429,142.045876 14.7526757,141.915887 15.227399,142.39061 L18.8368086,146.000019 L15.227399,149.609429 C14.7526757,150.084152 15.096429,149.954163 15.5711523,150.428887 C16.0457037,150.903438 15.9158866,151.247363 16.3906099,150.77264 L20.0000195,147.16323 L23.6094291,150.77264 C24.0839805,151.247191 23.9541634,150.90361 24.4288867,150.428887 C24.90361,149.954163 25.2471914,150.08398 24.77264,149.609429 L21.1632304,146.000019 L24.77264,142.39061 C25.2473633,141.915887 24.9034381,142.045704 24.4288867,141.571152 C23.9541634,141.096429 24.0841524,140.752676 23.6094291,141.227399 L20.0000195,144.836809 Z" id="Imported-Layers" opacity="0.5" fill="#5879CC" sketch:type="MSShapeGroup"></path>
        </g>
    </g>
</svg>
